<?xml version="1.0" encoding="UTF-8" standalone="no"?><!DOCTYPE svg PUBLIC "-//W3C//DTD SVG 1.1//EN" "http://www.w3.org/Graphics/SVG/1.1/DTD/svg11.dtd"><svg width="100%" height="100%" viewBox="0 0 288 90" version="1.1" xmlns="http://www.w3.org/2000/svg" xmlns:xlink="http://www.w3.org/1999/xlink" xml:space="preserve" xmlns:serif="http://www.serif.com/" style="fill-rule:evenodd;clip-rule:evenodd;stroke-linejoin:round;stroke-miterlimit:2;"><rect id="Lycee-SU" x="0" y="0" width="288" height="90" style="fill:none;"/><g id="V02"><g><g opacity="0.7"><path d="M238.136,32.035c-4.636,4.236 11.057,16.834 11.057,16.834c0,0 -3.388,-3.464 -4.076,-8.077c-0.871,-5.841 -3.724,-11.732 -6.981,-8.757" style="fill:#0080c7;fill-rule:nonzero;"/></g><g opacity="0.8"><path d="M247.576,27.907c-5.993,1.879 2.903,19.929 2.903,19.929c0,0 -1.603,-4.571 -0.278,-9.042c1.679,-5.662 1.582,-12.207 -2.625,-10.887" style="fill:#0080c7;fill-rule:nonzero;"/></g><path d="M258.039,27.246c-6.5,-0.864 -6.044,20.134 -6.044,20.134c0,0 0.498,-5.033 3.724,-8.678c4.087,-4.616 6.88,-10.85 2.32,-11.456" style="fill:#0080c7;fill-rule:nonzero;"/><g opacity="0.8"><path d="M267.106,32.73c-5.292,-3.383 -13.4,15.035 -13.4,15.035c0,0 2.469,-4.168 6.747,-6.026c5.417,-2.355 10.367,-6.634 6.653,-9.009" style="fill:#0080c7;fill-rule:nonzero;"/></g><g opacity="0.7"><path d="M273.537,40.778c-3.367,-5.302 -18.498,7.963 -18.498,7.963c0,0 3.999,-2.734 8.66,-2.609c5.905,0.155 12.201,-1.633 9.838,-5.354" style="fill:#0080c7;fill-rule:nonzero;"/></g><g opacity="0.6"><path d="M275.965,50.789c-0.812,-6.228 -20.132,-0.6 -20.132,-0.6c0,0 4.78,-0.787 8.954,1.295c5.283,2.638 11.746,3.679 11.178,-0.695" style="fill:#0080c7;fill-rule:nonzero;"/></g><g opacity="0.5"><path d="M273.807,60.936c1.898,-5.988 -17.991,-9.052 -17.991,-9.052c0,0 4.664,1.307 7.567,4.959c3.676,4.622 9.092,8.295 10.424,4.093" style="fill:#0080c7;fill-rule:nonzero;"/></g></g><g><path d="M13.435,43.324l9.438,0l0,1.224l-10.873,0l0,-19.902l1.435,0l0,18.678Z" style="fill:#231f20;fill-rule:nonzero;"/><path d="M28.09,49.049c-0.056,0.131 -0.129,0.239 -0.218,0.323c-0.089,0.085 -0.218,0.127 -0.386,0.127l-0.957,0l2.461,-5.471l-5.921,-13.474l1.111,0c0.14,0 0.251,0.035 0.331,0.105c0.079,0.071 0.138,0.148 0.176,0.232l4.712,10.887c0.055,0.14 0.105,0.283 0.147,0.428c0.042,0.146 0.082,0.293 0.119,0.444c0.047,-0.151 0.097,-0.298 0.149,-0.444c0.05,-0.145 0.105,-0.288 0.161,-0.428l4.656,-10.887c0.046,-0.103 0.112,-0.185 0.196,-0.246c0.085,-0.061 0.178,-0.091 0.282,-0.091l1.027,0l-8.046,18.495Z" style="fill:#231f20;fill-rule:nonzero;"/><path d="M47.276,32.424c-0.048,0.047 -0.092,0.087 -0.134,0.12c-0.042,0.032 -0.1,0.049 -0.176,0.049c-0.093,0 -0.222,-0.064 -0.386,-0.19c-0.164,-0.126 -0.383,-0.265 -0.655,-0.415c-0.272,-0.15 -0.612,-0.288 -1.019,-0.415c-0.408,-0.127 -0.902,-0.19 -1.484,-0.19c-0.807,0 -1.522,0.144 -2.145,0.43c-0.624,0.286 -1.148,0.696 -1.575,1.23c-0.427,0.534 -0.753,1.182 -0.978,1.942c-0.225,0.758 -0.338,1.612 -0.338,2.559c0,0.984 0.116,1.857 0.345,2.616c0.23,0.759 0.556,1.4 0.978,1.92c0.421,0.52 0.932,0.916 1.533,1.189c0.599,0.271 1.265,0.407 1.997,0.407c0.675,0 1.24,-0.079 1.695,-0.239c0.454,-0.159 0.829,-0.332 1.125,-0.52c0.295,-0.187 0.53,-0.361 0.703,-0.52c0.174,-0.16 0.312,-0.24 0.415,-0.24c0.121,0 0.216,0.047 0.282,0.141l0.365,0.45c-0.216,0.281 -0.487,0.544 -0.816,0.787c-0.328,0.244 -0.698,0.455 -1.111,0.633c-0.412,0.179 -0.86,0.317 -1.343,0.415c-0.483,0.099 -0.987,0.148 -1.512,0.148c-0.891,0 -1.704,-0.161 -2.44,-0.485c-0.736,-0.324 -1.369,-0.793 -1.899,-1.407c-0.53,-0.613 -0.943,-1.366 -1.238,-2.257c-0.295,-0.89 -0.443,-1.903 -0.443,-3.038c0,-1.069 0.141,-2.044 0.422,-2.926c0.281,-0.881 0.691,-1.64 1.23,-2.278c0.539,-0.638 1.201,-1.133 1.984,-1.484c0.783,-0.352 1.681,-0.528 2.693,-0.528c0.91,0 1.719,0.146 2.427,0.437c0.708,0.29 1.324,0.684 1.85,1.181l-0.352,0.478Z" style="fill:#231f20;fill-rule:nonzero;"/><path d="M58.626,24.421l-3.038,3.559c-0.075,0.093 -0.152,0.157 -0.233,0.189c-0.079,0.033 -0.175,0.05 -0.288,0.05l-0.801,0l2.208,-3.348c0.103,-0.169 0.211,-0.286 0.324,-0.351c0.112,-0.066 0.281,-0.099 0.506,-0.099l1.322,0Zm-3.144,6.906c-0.721,0 -1.367,0.113 -1.938,0.338c-0.571,0.225 -1.065,0.548 -1.481,0.97c-0.417,0.422 -0.754,0.929 -1.012,1.519c-0.257,0.591 -0.428,1.252 -0.512,1.984l9.212,0c0,-0.751 -0.103,-1.423 -0.309,-2.019c-0.206,-0.595 -0.496,-1.099 -0.871,-1.512c-0.374,-0.413 -0.823,-0.729 -1.347,-0.95c-0.525,-0.219 -1.106,-0.33 -1.742,-0.33m-0.021,-0.999c0.788,0 1.517,0.137 2.187,0.408c0.67,0.273 1.252,0.668 1.745,1.189c0.492,0.52 0.877,1.16 1.153,1.92c0.276,0.76 0.415,1.632 0.415,2.616c0,0.206 -0.03,0.347 -0.092,0.422c-0.06,0.075 -0.156,0.112 -0.288,0.112l-10.099,0l0,0.268c0,1.05 0.123,1.973 0.366,2.77c0.244,0.797 0.591,1.465 1.041,2.004c0.45,0.54 0.994,0.946 1.632,1.217c0.637,0.272 1.35,0.408 2.137,0.408c0.703,0 1.313,-0.077 1.828,-0.232c0.516,-0.155 0.951,-0.328 1.302,-0.521c0.352,-0.191 0.63,-0.365 0.837,-0.52c0.206,-0.155 0.355,-0.232 0.449,-0.232c0.122,0 0.216,0.047 0.282,0.141l0.366,0.45c-0.225,0.281 -0.523,0.544 -0.894,0.787c-0.37,0.244 -0.782,0.453 -1.237,0.626c-0.455,0.174 -0.943,0.313 -1.463,0.415c-0.521,0.104 -1.043,0.155 -1.568,0.155c-0.956,0 -1.829,-0.166 -2.617,-0.499c-0.787,-0.333 -1.463,-0.818 -2.027,-1.456c-0.564,-0.637 -1,-1.418 -1.308,-2.341c-0.308,-0.924 -0.461,-1.982 -0.461,-3.172c0,-1.004 0.142,-1.93 0.428,-2.779c0.286,-0.848 0.698,-1.58 1.238,-2.194c0.539,-0.613 1.2,-1.095 1.983,-1.441c0.783,-0.347 1.672,-0.521 2.665,-0.521" style="fill:#231f20;fill-rule:nonzero;"/><path d="M69.181,31.327c-0.722,0 -1.367,0.112 -1.938,0.338c-0.572,0.224 -1.066,0.548 -1.482,0.97c-0.417,0.421 -0.754,0.928 -1.012,1.519c-0.256,0.591 -0.427,1.252 -0.511,1.984l9.212,0c0,-0.751 -0.103,-1.423 -0.309,-2.019c-0.206,-0.596 -0.496,-1.1 -0.871,-1.513c-0.374,-0.412 -0.823,-0.728 -1.348,-0.949c-0.524,-0.22 -1.105,-0.33 -1.741,-0.33m-0.021,-0.999c0.788,0 1.516,0.137 2.187,0.408c0.67,0.273 1.252,0.668 1.744,1.189c0.492,0.52 0.877,1.16 1.153,1.92c0.277,0.759 0.416,1.631 0.416,2.616c0,0.206 -0.031,0.346 -0.092,0.422c-0.061,0.075 -0.157,0.112 -0.288,0.112l-10.099,0l0,0.268c0,1.049 0.122,1.973 0.365,2.77c0.244,0.797 0.591,1.465 1.041,2.004c0.45,0.54 0.994,0.945 1.632,1.217c0.638,0.272 1.351,0.408 2.138,0.408c0.703,0 1.312,-0.077 1.828,-0.232c0.516,-0.155 0.95,-0.329 1.302,-0.521c0.351,-0.191 0.63,-0.365 0.837,-0.52c0.206,-0.155 0.355,-0.232 0.449,-0.232c0.122,0 0.216,0.047 0.282,0.141l0.365,0.45c-0.224,0.281 -0.522,0.544 -0.893,0.787c-0.37,0.244 -0.783,0.453 -1.238,0.626c-0.455,0.174 -0.942,0.312 -1.462,0.415c-0.521,0.104 -1.043,0.154 -1.569,0.154c-0.956,0 -1.828,-0.166 -2.616,-0.499c-0.787,-0.333 -1.463,-0.817 -2.027,-1.455c-0.565,-0.637 -1,-1.419 -1.308,-2.342c-0.309,-0.923 -0.462,-1.981 -0.462,-3.171c0,-1.004 0.143,-1.93 0.429,-2.779c0.286,-0.848 0.698,-1.58 1.237,-2.194c0.539,-0.613 1.2,-1.095 1.983,-1.442c0.784,-0.346 1.672,-0.52 2.666,-0.52" style="fill:#231f20;fill-rule:nonzero;"/></g><g><path d="M16.618,77.237c-1.891,-0.511 -3.431,-1.201 -4.618,-2.074l2.145,-4.837c1.261,0.799 2.601,1.413 4.019,1.836c1.418,0.426 2.843,0.636 4.273,0.636c1.456,0 2.57,-0.199 3.347,-0.598c0.775,-0.401 1.163,-0.965 1.163,-1.691c0,-0.656 -0.351,-1.195 -1.054,-1.619c-0.703,-0.424 -2.026,-0.842 -3.966,-1.256c-2.448,-0.485 -4.352,-1.085 -5.709,-1.8c-1.358,-0.715 -2.31,-1.556 -2.855,-2.527c-0.545,-0.969 -0.817,-2.147 -0.817,-3.529c0,-1.576 0.447,-2.999 1.344,-4.273c0.898,-1.272 2.158,-2.268 3.782,-2.982c1.624,-0.715 3.48,-1.073 5.565,-1.073c1.867,0 3.68,0.261 5.437,0.781c1.76,0.522 3.134,1.208 4.13,2.056l-2.11,4.837c-1.141,-0.8 -2.341,-1.413 -3.601,-1.837c-1.261,-0.424 -2.523,-0.636 -3.782,-0.636c-1.237,0 -2.232,0.236 -2.983,0.709c-0.752,0.472 -1.127,1.108 -1.127,1.91c0,0.436 0.133,0.8 0.4,1.09c0.267,0.292 0.763,0.578 1.491,0.855c0.727,0.279 1.818,0.578 3.273,0.892c2.353,0.508 4.201,1.121 5.546,1.836c1.346,0.715 2.298,1.553 2.855,2.509c0.559,0.959 0.838,2.104 0.838,3.437c0,2.523 -0.982,4.505 -2.948,5.948c-1.962,1.442 -4.727,2.163 -8.292,2.163c-1.94,0 -3.854,-0.253 -5.746,-0.763" style="fill:#231f20;fill-rule:nonzero;"/><path d="M48.806,71.853c0.63,-0.799 0.944,-1.951 0.944,-3.455c0,-1.528 -0.314,-2.697 -0.944,-3.51c-0.631,-0.812 -1.528,-1.218 -2.692,-1.218c-1.14,0 -2.036,0.419 -2.692,1.255c-0.654,0.837 -0.981,2.019 -0.981,3.547c0,1.478 0.314,2.612 0.947,3.4c0.629,0.788 1.538,1.182 2.726,1.182c1.164,0 2.061,-0.401 2.692,-1.201m7.419,-12.657l0,18.477l-6.475,0l0,-2.509c-0.532,0.872 -1.307,1.558 -2.326,2.054c-1.019,0.497 -2.134,0.747 -3.346,0.747c-1.577,0 -2.983,-0.388 -4.219,-1.165c-1.237,-0.774 -2.201,-1.885 -2.891,-3.328c-0.692,-1.442 -1.037,-3.108 -1.037,-5c0,-1.916 0.35,-3.613 1.054,-5.093c0.703,-1.478 1.673,-2.63 2.909,-3.455c1.237,-0.823 2.632,-1.237 4.184,-1.237c1.212,0 2.321,0.262 3.328,0.783c1.005,0.521 1.788,1.217 2.344,2.091l0,-2.365l6.475,0Z" style="fill:#231f20;fill-rule:nonzero;"/><path d="M59.862,59.196l6.584,0l0,18.477l-6.584,0l0,-18.477Zm-0.181,-9.056l6.873,0l0,5.929l-6.873,0l0,-5.929Z" style="fill:#231f20;fill-rule:nonzero;"/><path d="M87.34,60.67c1.079,1.321 1.618,3.315 1.618,5.982l0,11.02l-6.583,0l0,-10.728c0,-1.14 -0.194,-1.958 -0.581,-2.455c-0.39,-0.498 -0.996,-0.746 -1.818,-0.746c-0.996,0 -1.796,0.334 -2.403,1c-0.605,0.668 -0.909,1.546 -0.909,2.637l0,10.292l-6.582,0l0,-13.165c0,-1.987 -0.097,-3.757 -0.291,-5.311l6.183,0l0.327,2.729c0.703,-1.043 1.576,-1.842 2.618,-2.401c1.044,-0.557 2.219,-0.836 3.529,-0.836c2.182,0 3.813,0.662 4.892,1.982" style="fill:#231f20;fill-rule:nonzero;"/><path d="M105.143,72.435l0,4.983c-0.896,0.365 -2.037,0.546 -3.419,0.546c-2.497,0 -4.395,-0.703 -5.692,-2.109c-1.298,-1.405 -1.946,-3.358 -1.946,-5.857l0,-5.965l-3.456,0l0,-4.837l3.456,0l0,-4.182l6.583,-2.109l0,6.291l4.437,0l0,4.837l-4.437,0l0,5.965c0,0.874 0.26,1.535 0.783,1.982c0.52,0.45 1.169,0.674 1.945,0.674c0.436,0 1.019,-0.073 1.746,-0.219" style="fill:#231f20;fill-rule:nonzero;"/><path d="M112.854,66.035l5.892,0c-0.243,-1.892 -1.188,-2.837 -2.838,-2.837c-1.626,0 -2.643,0.945 -3.054,2.837m11.529,3.054l-11.603,0c0.122,1.432 0.533,2.463 1.236,3.093c0.703,0.629 1.734,0.945 3.093,0.945c0.92,0 1.842,-0.152 2.764,-0.454c0.921,-0.304 1.757,-0.723 2.509,-1.256l1.673,4.364c-0.922,0.679 -2.037,1.214 -3.346,1.601c-1.31,0.388 -2.619,0.583 -3.929,0.583c-2.108,0 -3.939,-0.388 -5.491,-1.165c-1.551,-0.774 -2.74,-1.885 -3.564,-3.328c-0.824,-1.442 -1.237,-3.146 -1.237,-5.11c0,-1.867 0.395,-3.534 1.182,-5c0.789,-1.467 1.879,-2.613 3.273,-3.438c1.395,-0.823 2.989,-1.237 4.784,-1.237c1.745,0 3.274,0.389 4.582,1.165c1.308,0.776 2.316,1.885 3.019,3.328c0.703,1.442 1.055,3.121 1.055,5.036l0,0.873Z" style="fill:#231f20;fill-rule:nonzero;"/><rect x="127.51" y="65.271" width="11.783" height="5.092" style="fill:#231f20;"/><path d="M146.386,75.145c-1.939,-1.903 -2.909,-4.697 -2.909,-8.382l0,-14.986l6.655,0l0,15.239c0,1.867 0.419,3.298 1.256,4.291c0.836,0.996 2.03,1.492 3.582,1.492c1.527,0 2.703,-0.503 3.528,-1.508c0.825,-1.008 1.237,-2.431 1.237,-4.275l0,-15.239l6.727,0l0,14.986c0,3.635 -0.986,6.418 -2.963,8.347c-1.977,1.926 -4.819,2.89 -8.529,2.89c-3.783,0 -6.644,-0.951 -8.584,-2.855" style="fill:#231f20;fill-rule:nonzero;"/><path d="M184.03,59.161l0,6c-1.043,-0.483 -2.049,-0.727 -3.019,-0.727c-2.764,0 -4.147,1.322 -4.147,3.965l0,9.273l-6.582,0l0,-13.165c0,-1.987 -0.097,-3.757 -0.291,-5.311l6.183,0l0.4,3.092c0.437,-1.14 1.139,-2.013 2.11,-2.618c0.968,-0.606 2.061,-0.91 3.272,-0.91c0.898,0 1.589,0.134 2.074,0.401" style="fill:#231f20;fill-rule:nonzero;"/><path d="M184.357,75.746l1.673,-4.474c0.995,0.678 2.122,1.207 3.383,1.583c1.26,0.376 2.498,0.562 3.709,0.562c0.751,0 1.335,-0.108 1.747,-0.327c0.411,-0.218 0.617,-0.521 0.617,-0.909c0,-0.34 -0.151,-0.611 -0.454,-0.818c-0.304,-0.206 -0.879,-0.393 -1.727,-0.564l-2.983,-0.69c-1.892,-0.388 -3.255,-1.001 -4.093,-1.838c-0.835,-0.836 -1.252,-1.993 -1.252,-3.474c0,-1.187 0.35,-2.242 1.053,-3.164c0.704,-0.92 1.68,-1.642 2.929,-2.163c1.248,-0.521 2.684,-0.782 4.309,-0.782c1.333,0 2.643,0.194 3.928,0.582c1.286,0.388 2.485,0.933 3.601,1.635l-1.746,4.365c-0.97,-0.629 -1.963,-1.114 -2.982,-1.454c-1.018,-0.339 -1.977,-0.51 -2.873,-0.51c-0.729,0 -1.298,0.117 -1.709,0.346c-0.414,0.231 -0.62,0.565 -0.62,1c0,0.268 0.122,0.48 0.364,0.636c0.243,0.158 0.703,0.322 1.383,0.492l3.09,0.69c1.966,0.462 3.378,1.134 4.239,2.02c0.859,0.884 1.29,2.091 1.29,3.619c0,1.818 -0.721,3.249 -2.163,4.291c-1.443,1.042 -3.438,1.565 -5.984,1.565c-3.686,0 -6.595,-0.74 -8.729,-2.219" style="fill:#231f20;fill-rule:nonzero;"/><path d="M222.363,59.196l0,18.477l-6.437,0l0,-2.472c-1.187,1.842 -2.946,2.764 -5.274,2.764c-2.352,0 -4.103,-0.656 -5.255,-1.965c-1.152,-1.31 -1.727,-3.309 -1.727,-6.002l0,-10.802l6.582,0l0,10.984c0,1.819 0.788,2.728 2.365,2.728c0.921,0 1.667,-0.326 2.236,-0.981c0.57,-0.654 0.855,-1.528 0.855,-2.62l0,-10.111l6.655,0Z" style="fill:#231f20;fill-rule:nonzero;"/><rect x="226.001" y="50.904" width="6.583" height="26.768" style="fill:#231f20;"/><path d="M241.749,66.035l5.892,0c-0.243,-1.892 -1.188,-2.837 -2.838,-2.837c-1.625,0 -2.643,0.945 -3.054,2.837m11.53,3.054l-11.604,0c0.122,1.432 0.533,2.463 1.236,3.093c0.704,0.629 1.734,0.945 3.093,0.945c0.921,0 1.843,-0.152 2.765,-0.454c0.92,-0.304 1.757,-0.723 2.508,-1.256l1.673,4.364c-0.922,0.679 -2.036,1.214 -3.346,1.601c-1.31,0.388 -2.618,0.583 -3.928,0.583c-2.109,0 -3.94,-0.388 -5.491,-1.165c-1.552,-0.774 -2.74,-1.885 -3.565,-3.328c-0.824,-1.442 -1.236,-3.146 -1.236,-5.11c0,-1.867 0.394,-3.534 1.182,-5c0.788,-1.467 1.878,-2.613 3.272,-3.438c1.395,-0.823 2.989,-1.237 4.784,-1.237c1.746,0 3.274,0.389 4.582,1.165c1.309,0.776 2.316,1.885 3.019,3.328c0.704,1.442 1.056,3.121 1.056,5.036l0,0.873Z" style="fill:#231f20;fill-rule:nonzero;"/></g></g></svg>